<svg width="285" height="260" viewBox="0 0 285 260" fill="none" xmlns="http://www.w3.org/2000/svg">
<path fill-rule="evenodd" clip-rule="evenodd" d="M158.715 65.0784C162.54 60.1503 170.098 60.5148 173.431 65.7881L200.681 108.892C205.297 116.194 215.75 116.724 221.082 109.928L341.731 -43.8706C350.07 -54.5011 337.954 -68.9667 326.026 -62.6217L173.445 18.5381C170.53 20.0888 167 19.9185 164.247 18.0946L19.4994 -77.8248C8.23675 -85.2882 -5.21475 -72.0556 2.06285 -60.672L107.353 104.023C112.006 111.3 122.462 111.778 127.758 104.955L158.715 65.0784ZM217.703 132.303C213.878 137.231 206.32 136.866 202.987 131.593L175.737 88.4884C171.121 81.1871 160.668 80.6564 155.336 87.4527L34.6869 241.251C26.3477 251.882 38.4635 266.348 50.3921 260.003L202.973 178.843C205.888 177.292 209.418 177.462 212.171 179.286L356.919 275.206C368.181 282.669 381.633 269.436 374.355 258.053L269.065 93.3582C264.412 86.0804 253.956 85.6028 248.659 92.4261L217.703 132.303Z" fill="url(#paint0_linear_2248_5007)" fill-opacity="0.14"/>
<defs>
<linearGradient id="paint0_linear_2248_5007" x1="203" y1="-69.5" x2="203" y2="306" gradientUnits="userSpaceOnUse">
<stop offset="0.0538589" stop-color="white" stop-opacity="0"/>
<stop offset="1" stop-color="white"/>
</linearGradient>
</defs>
</svg>
