<svg width="285" height="260" viewBox="0 0 285 260" fill="none" xmlns="http://www.w3.org/2000/svg">
<path fill-rule="evenodd" clip-rule="evenodd" d="M173.431 65.7881C170.098 60.5148 162.54 60.1503 158.715 65.0784L127.758 104.955C122.462 111.778 112.006 111.3 107.353 104.023L2.06285 -60.672C-5.21475 -72.0556 8.23675 -85.2882 19.4994 -77.8248L164.247 18.0946C167 19.9185 170.53 20.0888 173.445 18.5381L326.026 -62.6217C337.954 -68.9667 350.07 -54.5011 341.731 -43.8706L221.082 109.928C215.75 116.724 205.297 116.194 200.681 108.892L173.431 65.7881Z" fill="#333333"/>
<path fill-rule="evenodd" clip-rule="evenodd" d="M202.986 131.593C206.32 136.866 213.877 137.231 217.703 132.303L248.659 92.4261C253.956 85.6028 264.412 86.0804 269.065 93.3582L374.355 258.053C381.632 269.436 368.181 282.669 356.918 275.206L212.17 179.286C209.418 177.462 205.888 177.292 202.972 178.843L50.3918 260.003C38.4633 266.348 26.3475 251.882 34.6867 241.251L155.336 87.4527C160.667 80.6564 171.121 81.1871 175.737 88.4884L202.986 131.593Z" fill="#333333"/>
</svg>
