<svg width="306" height="199" viewBox="0 0 306 199" fill="none" xmlns="http://www.w3.org/2000/svg">
<rect x="267" y="20" width="39" height="68" fill="url(#paint0_linear_2248_5307)"/>
<circle cx="286.506" cy="23.2912" r="19.4941" fill="#28858B"/>
<circle cx="286.506" cy="21.4123" r="19.4941" fill="#3FC0C6"/>
<circle cx="286.272" cy="21.1773" r="14.7967" fill="#33A5AD" stroke="#28858B" stroke-width="0.469737"/>
<path d="M290.361 28.3091H280.264V25.8868H290.361V28.3091ZM287.674 22.7792H280.23V20.4655H287.674V22.7792ZM284.539 18.3418L284.756 24.1159C284.779 24.7356 284.654 25.2535 284.383 25.6697C284.116 26.0813 283.655 26.4319 282.999 26.7214L281.153 25.8868C281.352 25.8461 281.502 25.7443 281.601 25.5815C281.705 25.4141 281.773 25.2151 281.805 24.9844C281.841 24.7537 281.857 24.5185 281.852 24.2787L281.649 18.3418C281.612 17.4597 281.782 16.7134 282.157 16.1027C282.537 15.4876 283.062 15.0216 283.732 14.705C284.401 14.3838 285.156 14.2233 285.998 14.2233C286.708 14.2233 287.339 14.3228 287.891 14.5218C288.443 14.7163 288.909 14.9945 289.289 15.3564C289.673 15.7137 289.958 16.1367 290.143 16.6252C290.329 17.1137 290.41 17.6497 290.388 18.2332L287.64 18.1586C287.649 17.7741 287.581 17.4665 287.436 17.2358C287.291 17.0051 287.097 16.8378 286.853 16.7337C286.608 16.6297 286.339 16.5777 286.045 16.5777C285.76 16.5777 285.502 16.6433 285.272 16.7745C285.046 16.9011 284.865 17.0956 284.729 17.358C284.598 17.6158 284.534 17.9438 284.539 18.3418Z" fill="#28858B"/>
<path d="M289.376 28.3091H279.28V25.8868H289.376V28.3091ZM286.689 22.7792H279.246V20.4655H286.689V22.7792ZM283.555 18.3418L283.772 24.1159C283.794 24.7356 283.67 25.2535 283.399 25.6697C283.132 26.0813 282.67 26.4319 282.014 26.7214L280.169 25.8868C280.368 25.8461 280.517 25.7443 280.617 25.5815C280.721 25.4141 280.789 25.2151 280.82 24.9844C280.856 24.7537 280.872 24.5185 280.868 24.2787L280.664 18.3418C280.628 17.4597 280.798 16.7134 281.173 16.1027C281.553 15.4876 282.078 15.0216 282.747 14.705C283.417 14.3838 284.172 14.2233 285.013 14.2233C285.724 14.2233 286.355 14.3228 286.906 14.5218C287.458 14.7163 287.924 14.9945 288.304 15.3564C288.689 15.7137 288.974 16.1367 289.159 16.6252C289.345 17.1137 289.426 17.6497 289.403 18.2332L286.655 18.1586C286.664 17.7741 286.597 17.4665 286.452 17.2358C286.307 17.0051 286.113 16.8378 285.868 16.7337C285.624 16.6297 285.355 16.5777 285.061 16.5777C284.776 16.5777 284.518 16.6433 284.287 16.7745C284.061 16.9011 283.88 17.0956 283.745 17.358C283.613 17.6158 283.55 17.9438 283.555 18.3418Z" fill="#C7FCFF"/>
<path d="M292.224 5.17404C292.306 4.91288 292.162 4.63369 291.898 4.55792C288.137 3.47511 284.137 3.54965 280.419 4.77182C280.158 4.85733 280.024 5.14173 280.116 5.39964C280.208 5.65755 280.492 5.79127 280.752 5.70611C284.266 4.55628 288.045 4.48588 291.6 5.50399C291.863 5.5794 292.142 5.43521 292.224 5.17404Z" fill="#56F7FF"/>
<circle cx="297.517" cy="66.7322" r="0.985667" fill="#50B3B9"/>
<circle cx="294.518" cy="50.3164" r="0.670886" fill="#50B3B9"/>
<circle cx="292.505" cy="52.3291" r="1.34177" fill="#50B3B9"/>
<circle cx="1.34177" cy="1.34177" r="1.34177" transform="matrix(1 0 0 -1 293.847 56.3542)" fill="#50B3B9"/>
<circle cx="289.11" cy="59.6674" r="1.97133" fill="#28858B"/>
<rect x="181" y="75" width="65" height="87" fill="url(#paint1_linear_2248_5307)"/>
<circle cx="213.539" cy="80.3771" r="32.3993" fill="#412EA0"/>
<circle cx="213.539" cy="77.2542" r="32.3993" fill="#8871FB"/>
<circle cx="213.148" cy="76.8639" r="24.5922" fill="#5A42D4" stroke="#412EA0" stroke-width="0.780705"/>
<path d="M211.865 91.3346V62.4659H213.714V91.3346H211.865ZM216.77 71.9949C216.68 71.0852 216.293 70.3785 215.608 69.8748C214.924 69.3711 213.996 69.1193 212.823 69.1193C212.026 69.1193 211.353 69.232 210.805 69.4576C210.256 69.6756 209.835 69.9801 209.542 70.371C209.256 70.7619 209.113 71.2055 209.113 71.7017C209.098 72.1151 209.184 72.476 209.372 72.7842C209.568 73.0925 209.835 73.3594 210.173 73.5849C210.511 73.8029 210.902 73.9946 211.346 74.16C211.789 74.3179 212.263 74.4532 212.767 74.566L214.842 75.0622C215.849 75.2877 216.774 75.5884 217.616 75.9643C218.458 76.3402 219.187 76.8025 219.803 77.3514C220.42 77.9002 220.897 78.5467 221.236 79.291C221.581 80.0352 221.758 80.8885 221.766 81.8508C221.758 83.2642 221.397 84.4896 220.683 85.5271C219.976 86.557 218.954 87.3577 217.616 87.929C216.285 88.4929 214.68 88.7748 212.801 88.7748C210.936 88.7748 209.312 88.4891 207.929 87.9177C206.553 87.3464 205.478 86.5006 204.704 85.3805C203.937 84.2528 203.535 82.8582 203.497 81.1968H208.222C208.275 81.9711 208.497 82.6176 208.887 83.1364C209.286 83.6476 209.816 84.0348 210.478 84.2979C211.147 84.5535 211.902 84.6813 212.744 84.6813C213.571 84.6813 214.289 84.561 214.898 84.3204C215.514 84.0799 215.992 83.7453 216.33 83.3168C216.668 82.8883 216.838 82.3959 216.838 81.8395C216.838 81.3208 216.684 80.8848 216.375 80.5314C216.075 80.1781 215.631 79.8774 215.045 79.6293C214.466 79.3812 213.755 79.1556 212.913 78.9527L210.399 78.3212C208.451 77.8475 206.914 77.107 205.786 76.0996C204.659 75.0922 204.099 73.7352 204.106 72.0287C204.099 70.6304 204.471 69.4087 205.223 68.3637C205.982 67.3187 207.023 66.503 208.346 65.9166C209.669 65.3303 211.173 65.0371 212.857 65.0371C214.571 65.0371 216.067 65.3303 217.345 65.9166C218.631 66.503 219.631 67.3187 220.345 68.3637C221.059 69.4087 221.427 70.6191 221.45 71.9949H216.77Z" fill="#412EA0"/>
<path d="M210.228 91.3346V62.4659H212.077V91.3346H210.228ZM215.133 71.9949C215.043 71.0852 214.656 70.3785 213.972 69.8748C213.288 69.3711 212.359 69.1193 211.186 69.1193C210.389 69.1193 209.717 69.232 209.168 69.4576C208.619 69.6756 208.198 69.9801 207.905 70.371C207.619 70.7619 207.476 71.2055 207.476 71.7017C207.461 72.1151 207.548 72.476 207.736 72.7842C207.931 73.0925 208.198 73.3594 208.536 73.5849C208.875 73.8029 209.266 73.9946 209.709 74.16C210.153 74.3179 210.626 74.4532 211.13 74.566L213.205 75.0622C214.212 75.2877 215.137 75.5884 215.979 75.9643C216.821 76.3402 217.55 76.8025 218.167 77.3514C218.783 77.9002 219.261 78.5467 219.599 79.291C219.945 80.0352 220.121 80.8885 220.129 81.8508C220.121 83.2642 219.761 84.4896 219.046 85.5271C218.34 86.557 217.317 87.3577 215.979 87.929C214.648 88.4929 213.043 88.7748 211.164 88.7748C209.299 88.7748 207.676 88.4891 206.292 87.9177C204.916 87.3464 203.841 86.5006 203.067 85.3805C202.3 84.2528 201.898 82.8582 201.86 81.1968H206.585C206.638 81.9711 206.86 82.6176 207.251 83.1364C207.649 83.6476 208.179 84.0348 208.841 84.2979C209.51 84.5535 210.265 84.6813 211.107 84.6813C211.934 84.6813 212.652 84.561 213.261 84.3204C213.878 84.0799 214.355 83.7453 214.693 83.3168C215.032 82.8883 215.201 82.3959 215.201 81.8395C215.201 81.3208 215.047 80.8848 214.739 80.5314C214.438 80.1781 213.994 79.8774 213.408 79.6293C212.829 79.3812 212.119 79.1556 211.277 78.9527L208.762 78.3212C206.815 77.8475 205.277 77.107 204.15 76.0996C203.022 75.0922 202.462 73.7352 202.469 72.0287C202.462 70.6304 202.834 69.4087 203.586 68.3637C204.345 67.3187 205.386 66.503 206.709 65.9166C208.033 65.3303 209.536 65.0371 211.22 65.0371C212.934 65.0371 214.43 65.3303 215.708 65.9166C216.994 66.503 217.994 67.3187 218.708 68.3637C219.422 69.4087 219.791 70.6191 219.813 71.9949H215.133Z" fill="#F3F1FB"/>
<path d="M239.216 62.0021C239.587 61.7372 239.673 61.2216 239.399 60.8583C235.48 55.6663 230.088 51.7737 223.926 49.6881C223.495 49.5422 223.033 49.7862 222.898 50.2209C222.763 50.6556 223.007 51.1164 223.438 51.2629C229.256 53.2411 234.349 56.9178 238.058 61.8179C238.332 62.1808 238.846 62.267 239.216 62.0021Z" fill="#C7BFF3"/>
<circle cx="190.967" cy="126.06" r="1.63818" fill="#FFC81B" fill-opacity="0.54"/>
<circle cx="197.52" cy="132.613" r="3.27637" fill="#F9D63E"/>
<rect x="77.9998" y="49.9998" width="82" height="146" fill="url(#paint2_linear_2248_5307)"/>
<circle cx="118.747" cy="56.1791" r="40.924" fill="#003780"/>
<circle cx="118.747" cy="52.2346" r="40.924" fill="#0167EF"/>
<circle cx="118.254" cy="51.7414" r="31.0628" fill="#0051BC" stroke="#003780" stroke-width="0.986121"/>
<path d="M125.849 47.1919L124.438 50.3113H105.394L106.548 47.1919H125.849ZM123.128 53.1601L121.575 56.3508H105.394L106.548 53.1601H123.128ZM129.552 39.4005L127.273 44.2719C126.893 44.006 126.433 43.7164 125.891 43.403C125.36 43.0802 124.747 42.8095 124.054 42.5911C123.37 42.3632 122.611 42.2493 121.775 42.2493C120.455 42.2493 119.306 42.5816 118.328 43.2464C117.35 43.9111 116.59 44.9461 116.049 46.3515C115.517 47.7569 115.251 49.5612 115.251 51.7642C115.251 53.9863 115.517 55.7953 116.049 57.1912C116.59 58.5776 117.35 59.5984 118.328 60.2536C119.306 60.8993 120.455 61.2222 121.775 61.2222C122.611 61.2222 123.37 61.113 124.054 60.8946C124.738 60.6762 125.336 60.415 125.849 60.1112C126.371 59.8073 126.808 59.5272 127.159 59.2708L129.467 64.1422C128.432 64.9968 127.259 65.6426 125.948 66.0794C124.638 66.5067 123.247 66.7204 121.775 66.7204C119.287 66.7204 117.084 66.1316 115.166 64.9541C113.257 63.7671 111.761 62.0626 110.679 59.8405C109.596 57.609 109.055 54.9169 109.055 51.7642C109.055 48.6211 109.596 45.929 110.679 43.6879C111.761 41.4469 113.257 39.7328 115.166 38.5459C117.084 37.3494 119.287 36.7511 121.775 36.7511C123.304 36.7511 124.719 36.979 126.02 37.4348C127.32 37.8906 128.498 38.5459 129.552 39.4005Z" fill="#003780"/>
<path d="M123.781 47.1919L122.371 50.3113H103.327L104.481 47.1919H123.781ZM121.061 53.1601L119.508 56.3508H103.327L104.481 53.1601H121.061ZM127.485 39.4005L125.206 44.2719C124.826 44.006 124.365 43.7164 123.824 43.403C123.292 43.0802 122.68 42.8095 121.987 42.5911C121.303 42.3632 120.543 42.2493 119.707 42.2493C118.388 42.2493 117.239 42.5816 116.26 43.2464C115.282 43.9111 114.523 44.9461 113.981 46.3515C113.45 47.7569 113.184 49.5612 113.184 51.7642C113.184 53.9863 113.45 55.7953 113.981 57.1912C114.523 58.5776 115.282 59.5984 116.26 60.2536C117.239 60.8993 118.388 61.2222 119.707 61.2222C120.543 61.2222 121.303 61.113 121.987 60.8946C122.67 60.6762 123.268 60.415 123.781 60.1112C124.304 59.8073 124.74 59.5272 125.092 59.2708L127.399 64.1422C126.364 64.9968 125.191 65.6426 123.881 66.0794C122.571 66.5067 121.179 66.7204 119.707 66.7204C117.22 66.7204 115.016 66.1316 113.098 64.9541C111.19 63.7671 109.694 62.0626 108.611 59.8405C107.529 57.609 106.988 54.9169 106.988 51.7642C106.988 48.6211 107.529 45.929 108.611 43.6879C109.694 41.4469 111.19 39.7328 113.098 38.5459C115.016 37.3494 117.22 36.7511 119.707 36.7511C121.236 36.7511 122.651 36.979 123.952 37.4348C125.253 37.8906 126.431 38.5459 127.485 39.4005Z" fill="#D7E8FF"/>
<path d="M151.176 32.9625C151.644 32.6279 151.752 31.9766 151.406 31.5178C146.454 24.9607 139.643 20.0453 131.86 17.4127C131.315 17.2285 130.731 17.5369 130.561 18.086C130.391 18.6351 130.698 19.217 131.243 19.4019C138.592 21.8991 145.026 26.5419 149.712 32.7302C150.059 33.1885 150.709 33.2972 151.176 32.9625Z" fill="url(#paint3_linear_2248_5307)"/>
<circle cx="126.854" cy="111.756" r="2.06921" fill="#6196DD"/>
<circle cx="147.089" cy="114.795" r="2.06921" transform="rotate(165 147.089 114.795)" fill="#7EB0F2"/>
<circle cx="135.131" cy="120.033" r="4.13843" fill="#2970CC"/>
<circle cx="135.562" cy="111.347" r="2.17497" transform="rotate(165 135.562 111.347)" fill="#2970CC"/>
<rect x="3.99976" y="28" width="53" height="89" fill="url(#paint4_linear_2248_5307)"/>
<circle cx="30.5621" cy="32.3548" r="26.537" fill="#E99604"/>
<circle cx="30.5621" cy="29.797" r="26.537" fill="#FFC81B"/>
<circle cx="30.2423" cy="29.4774" r="20.1425" fill="#FFA70B" stroke="#D76B09" stroke-width="0.639445"/>
<path d="M39.5411 27.1191V28.9664H20.6988V27.1191H39.5411ZM39.5411 31.1093V32.9565H20.6988V31.1093H39.5411ZM38.0356 20.2103V39.1265H34.5811L26.3607 27.2207H26.213V39.1265H22.2228V20.2103H25.7234L33.8976 32.1068H34.0547V20.2103H38.0356Z" fill="#D46C0B"/>
<path d="M38.1993 27.1191V28.9664H19.357V27.1191H38.1993ZM38.1993 31.1093V32.9565H19.357V31.1093H38.1993ZM36.6938 20.2103V39.1265H33.2393L25.0189 27.2207H24.8712V39.1265H20.881V20.2103H24.3816L32.5559 32.1068H32.7129V20.2103H36.6938Z" fill="#FED622"/>
<path d="M8.22522 25.8103C7.86454 25.716 7.49479 25.9318 7.40965 26.2947C6.19292 31.4819 6.56597 36.916 8.48014 41.8882C8.61408 42.2361 9.00986 42.3994 9.35426 42.2566C9.69865 42.1139 9.8612 41.7192 9.72774 41.3711C7.92577 36.6712 7.5734 31.5385 8.7162 26.6365C8.80084 26.2734 8.58589 25.9047 8.22522 25.8103Z" fill="#FEED31"/>
<circle cx="12.0757" cy="69.7719" r="1.34177" fill="#FFC81B" fill-opacity="0.54"/>
<circle cx="17.4431" cy="75.1391" r="2.68354" fill="#F9D63E"/>
<path d="M8.10355 26.9072L7.35218 31.8003L11.9654 33.5962L7.07231 32.8448L5.27646 37.4581L6.02783 32.5649L1.41458 30.7691L6.3077 31.5205L8.10355 26.9072Z" fill="#FAFAFA"/>
<path d="M235.585 41.216L233.647 53.8383L245.547 58.4709L232.925 56.5327L228.292 68.4331L230.231 55.8107L218.33 51.1781L230.953 53.1164L235.585 41.216Z" fill="#FAFAFA"/>
<path d="M145.686 10.3554L142.284 23.823L155.649 27.6103L142.181 24.2079L138.394 37.5725L141.796 24.1048L128.431 20.3175L141.899 23.7199L145.686 10.3554Z" fill="#FAFAFA"/>
<path d="M142.041 9.87549L142.838 23.1671L156.129 23.9641L142.838 24.7611L142.041 38.0527L141.244 24.7611L127.952 23.9641L141.244 23.1671L142.041 9.87549Z" fill="#FAFAFA"/>
<circle cx="275.063" cy="6.70896" r="1.34177" fill="#FAFAFA"/>
<circle cx="274.393" cy="10.0635" r="0.670886" fill="#FAFAFA"/>
<circle cx="270.367" cy="10.0634" r="2.01266" fill="#FAFAFA"/>
<circle cx="269.696" cy="2.68354" r="2.68354" fill="#FAFAFA"/>
<defs>
<linearGradient id="paint0_linear_2248_5307" x1="286.5" y1="20" x2="286.5" y2="88" gradientUnits="userSpaceOnUse">
<stop stop-color="#33A5AD"/>
<stop offset="1" stop-color="#3FC0C6" stop-opacity="0"/>
</linearGradient>
<linearGradient id="paint1_linear_2248_5307" x1="213.5" y1="75" x2="213.5" y2="162" gradientUnits="userSpaceOnUse">
<stop stop-color="#5A42D4"/>
<stop offset="1" stop-color="#5A42D4" stop-opacity="0"/>
</linearGradient>
<linearGradient id="paint2_linear_2248_5307" x1="119" y1="49.9998" x2="119" y2="196" gradientUnits="userSpaceOnUse">
<stop stop-color="#0051BC"/>
<stop offset="1" stop-color="#036AF2" stop-opacity="0"/>
</linearGradient>
<linearGradient id="paint3_linear_2248_5307" x1="130.152" y1="17.443" x2="152.962" y2="37.5696" gradientUnits="userSpaceOnUse">
<stop stop-color="#83B5F8"/>
<stop offset="0.385999" stop-color="white"/>
<stop offset="0.512576" stop-color="white"/>
<stop offset="0.618198" stop-color="white"/>
<stop offset="1" stop-color="#83B5F8" stop-opacity="0"/>
</linearGradient>
<linearGradient id="paint4_linear_2248_5307" x1="30.4998" y1="28" x2="30.4998" y2="117" gradientUnits="userSpaceOnUse">
<stop stop-color="#FEEC30"/>
<stop offset="1" stop-color="#FEEC30" stop-opacity="0"/>
</linearGradient>
</defs>
</svg>
