<svg width="312" height="200" viewBox="0 0 312 200" fill="none" xmlns="http://www.w3.org/2000/svg">
<g clip-path="url(#clip0_2248_5375)">
<path d="M66.6563 169.169C66.6563 169.636 44.5804 173.484 30.2197 169.636V129.93H66.6563V169.169Z" fill="#FFB511"/>
<path d="M29.2852 130.864C32.5551 135.535 60.5833 135.535 67.5903 130.864" stroke="#FFD823" stroke-width="0.934272"/>
<path d="M29.2852 136.47C32.5551 141.141 60.5833 141.141 67.5903 136.47" stroke="#FFD823" stroke-width="0.934272"/>
<path d="M29.2852 141.141C32.5551 145.812 60.5833 145.812 67.5903 141.141" stroke="#FFD823" stroke-width="0.934272"/>
<path d="M29.2852 145.812C32.5551 150.484 60.5833 150.484 67.5903 145.812" stroke="#FFD823" stroke-width="0.934272"/>
<path d="M29.2852 151.418C32.5551 156.089 60.5833 156.089 67.5903 151.418" stroke="#FFD823" stroke-width="0.934272"/>
<path d="M29.2852 157.023C32.5551 161.695 60.5833 161.695 67.5903 157.023" stroke="#FFD823" stroke-width="0.934272"/>
<path d="M29.2852 162.629C32.5551 167.301 60.5833 167.301 67.5903 162.629" stroke="#FFD823" stroke-width="0.934272"/>
<path d="M29.2852 168.235C32.5551 172.906 60.5833 172.906 67.5903 168.235" stroke="#FFD823" stroke-width="0.934272"/>
</g>
<ellipse cx="48.438" cy="131.864" rx="18.2183" ry="3.80265" fill="#FFB511"/>
<ellipse cx="48.4392" cy="131.388" rx="14.4812" ry="2.37666" fill="#D76B09"/>
<ellipse cx="47.5037" cy="131.388" rx="14.4812" ry="2.37666" fill="#EA9806"/>
<g clip-path="url(#clip1_2248_5375)">
<path d="M120.843 169.169C120.843 169.636 98.7667 173.483 84.406 169.636V129.929H120.843V169.169Z" fill="#FFB511"/>
<path d="M83.4714 130.863C86.7414 135.535 114.77 135.535 121.777 130.863" stroke="#FFD823" stroke-width="0.934272"/>
<path d="M83.4714 136.469C86.7414 141.141 114.77 141.141 121.777 136.469" stroke="#FFD823" stroke-width="0.934272"/>
<path d="M83.4714 141.141C86.7414 145.812 114.77 145.812 121.777 141.141" stroke="#FFD823" stroke-width="0.934272"/>
<path d="M83.4714 145.812C86.7414 150.483 114.77 150.483 121.777 145.812" stroke="#FFD823" stroke-width="0.934272"/>
<path d="M83.4714 151.417C86.7414 156.089 114.77 156.089 121.777 151.417" stroke="#FFD823" stroke-width="0.934272"/>
<path d="M83.4714 157.023C86.7414 161.694 114.77 161.694 121.777 157.023" stroke="#FFD823" stroke-width="0.934272"/>
<path d="M83.4714 162.629C86.7414 167.3 114.77 167.3 121.777 162.629" stroke="#FFD823" stroke-width="0.934272"/>
<path d="M83.4714 168.234C86.7414 172.906 114.77 172.906 121.777 168.234" stroke="#FFD823" stroke-width="0.934272"/>
</g>
<ellipse cx="102.624" cy="131.863" rx="18.2183" ry="3.80265" fill="#FFB511"/>
<ellipse cx="102.625" cy="131.388" rx="14.4812" ry="2.37666" fill="#EA9806"/>
<g clip-path="url(#clip2_2248_5375)">
<path d="M120.843 152.352C120.843 152.819 98.7667 156.667 84.406 152.819V113.113H120.843V152.352Z" fill="#FFB511"/>
<path d="M83.4714 114.047C86.7414 118.718 114.77 118.718 121.777 114.047" stroke="#FFD823" stroke-width="0.934272"/>
<path d="M83.4714 119.653C86.7414 124.324 114.77 124.324 121.777 119.653" stroke="#FFD823" stroke-width="0.934272"/>
<path d="M83.4714 124.324C86.7414 128.996 114.77 128.996 121.777 124.324" stroke="#FFD823" stroke-width="0.934272"/>
<path d="M83.4714 128.995C86.7414 133.667 114.77 133.667 121.777 128.995" stroke="#FFD823" stroke-width="0.934272"/>
<path d="M83.4714 134.601C86.7414 139.272 114.77 139.272 121.777 134.601" stroke="#FFD823" stroke-width="0.934272"/>
<path d="M83.4714 140.207C86.7414 144.878 114.77 144.878 121.777 140.207" stroke="#FFD823" stroke-width="0.934272"/>
<path d="M83.4714 145.812C86.7414 150.484 114.77 150.484 121.777 145.812" stroke="#FFD823" stroke-width="0.934272"/>
<path d="M83.4714 151.418C86.7414 156.089 114.77 156.089 121.777 151.418" stroke="#FFD823" stroke-width="0.934272"/>
</g>
<ellipse cx="102.624" cy="115.047" rx="18.2183" ry="3.80265" fill="#FFB511"/>
<ellipse cx="102.625" cy="114.571" rx="14.4812" ry="2.37666" fill="#D76B09"/>
<ellipse cx="101.69" cy="114.571" rx="14.4812" ry="2.37666" fill="#EA9806"/>
<g clip-path="url(#clip3_2248_5375)">
<path d="M175.032 169.169C175.032 169.636 152.956 173.484 138.596 169.636V129.93H175.032V169.169Z" fill="#FFB511"/>
<path d="M137.66 130.864C140.93 135.535 168.958 135.535 175.965 130.864" stroke="#FFD823" stroke-width="0.934272"/>
<path d="M137.66 136.47C140.93 141.141 168.958 141.141 175.965 136.47" stroke="#FFD823" stroke-width="0.934272"/>
<path d="M137.66 141.141C140.93 145.812 168.958 145.812 175.965 141.141" stroke="#FFD823" stroke-width="0.934272"/>
<path d="M137.66 145.812C140.93 150.484 168.958 150.484 175.965 145.812" stroke="#FFD823" stroke-width="0.934272"/>
<path d="M137.66 151.418C140.93 156.089 168.958 156.089 175.965 151.418" stroke="#FFD823" stroke-width="0.934272"/>
<path d="M137.66 157.023C140.93 161.695 168.958 161.695 175.965 157.023" stroke="#FFD823" stroke-width="0.934272"/>
<path d="M137.66 162.629C140.93 167.301 168.958 167.301 175.965 162.629" stroke="#FFD823" stroke-width="0.934272"/>
<path d="M137.66 168.235C140.93 172.906 168.958 172.906 175.965 168.235" stroke="#FFD823" stroke-width="0.934272"/>
</g>
<ellipse cx="156.814" cy="131.864" rx="18.2183" ry="3.80265" fill="#FFB511"/>
<ellipse cx="156.814" cy="131.388" rx="14.4812" ry="2.37666" fill="#EA9806"/>
<g clip-path="url(#clip4_2248_5375)">
<path d="M175.032 130.864C175.032 131.331 152.956 135.179 138.596 131.331V91.6245H175.032V130.864Z" fill="#FFB511"/>
<path d="M137.66 92.5586C140.93 97.23 168.958 97.23 175.965 92.5586" stroke="#FFD823" stroke-width="0.934272"/>
<path d="M137.66 98.1643C140.93 102.836 168.958 102.836 175.965 98.1643" stroke="#FFD823" stroke-width="0.934272"/>
<path d="M137.66 102.836C140.93 107.507 168.958 107.507 175.965 102.836" stroke="#FFD823" stroke-width="0.934272"/>
<path d="M137.66 107.507C140.93 112.178 168.958 112.178 175.965 107.507" stroke="#FFD823" stroke-width="0.934272"/>
<path d="M137.66 113.113C140.93 117.784 168.958 117.784 175.965 113.113" stroke="#FFD823" stroke-width="0.934272"/>
<path d="M137.66 118.718C140.93 123.39 168.958 123.39 175.965 118.718" stroke="#FFD823" stroke-width="0.934272"/>
<path d="M137.66 124.324C140.93 128.995 168.958 128.995 175.965 124.324" stroke="#FFD823" stroke-width="0.934272"/>
<path d="M137.66 129.93C140.93 134.601 168.958 134.601 175.965 129.93" stroke="#FFD823" stroke-width="0.934272"/>
</g>
<ellipse cx="156.814" cy="93.5585" rx="18.2183" ry="3.80265" fill="#FFB511"/>
<ellipse cx="156.814" cy="93.0832" rx="14.4812" ry="2.37666" fill="#D76B09"/>
<ellipse cx="155.879" cy="93.0832" rx="14.4812" ry="2.37666" fill="#EA9806"/>
<g clip-path="url(#clip5_2248_5375)">
<path d="M139.451 46.3297C148.147 41.0953 156.863 35.7462 165.56 30.5118C161.092 39.3089 156.585 48.3354 153.759 57.8876C153.521 55.8389 152.92 53.8456 151.954 51.9078C126.852 76.2843 82.2643 87.6208 52.8229 89.8732C51.4267 89.7509 52.5225 71.0429 53.63 71.4699C64.3846 74.8572 76.0046 73.9057 87.1141 71.8033C108.376 67.6698 128.664 59.5894 146.772 47.7085C144.462 46.7202 141.959 46.1709 139.451 46.3297Z" fill="url(#paint0_linear_2248_5375)"/>
</g>
<path d="M12.4697 172.856H297.89" stroke="#8E8E8E" stroke-width="0.884444"/>
<g clip-path="url(#clip6_2248_5375)">
<path d="M252.385 116.047C252.384 116.038 252.383 116.028 252.382 116.019C252.383 116.026 252.384 116.038 252.385 116.047ZM252.369 115.812C252.369 115.803 252.368 115.797 252.368 115.79C252.368 115.796 252.369 115.805 252.369 115.812ZM252.358 115.635C252.358 115.632 252.358 115.629 252.358 115.628C252.358 115.629 252.358 115.634 252.358 115.635ZM252.353 115.557C252.353 115.552 252.353 115.549 252.353 115.546C252.353 115.549 252.353 115.554 252.353 115.557ZM252.349 115.478C252.349 115.475 252.349 115.47 252.348 115.465C252.349 115.47 252.349 115.473 252.349 115.478Z" fill="#EAA3AB"/>
<path d="M234.956 67.3382C234.956 67.3382 222.045 71.5883 212.715 79.6176C203.386 87.6457 194.814 111.045 193.966 127.083C193.12 143.123 190.01 155.838 196.632 163.526C203.254 171.214 222.92 171.428 239.846 171.843C256.772 172.257 279.667 166.543 283.902 160.355C288.137 154.169 284.536 109.951 274.547 93.8973C264.557 77.8454 247.717 66.0379 234.956 67.3382Z" fill="#0051BC"/>
<path d="M277.74 136.548C269.279 137.088 262.737 139.394 258.423 147.08C255.565 152.171 251.839 160.053 254.728 165.956C255.523 167.58 256.512 169.037 257.515 170.475C269.756 168.464 281.052 164.517 283.901 160.355C285.664 157.779 286.064 148.602 285.214 137.617C282.834 137.047 280.441 136.374 277.74 136.548Z" fill="#002C65"/>
<path d="M264.318 160.896C260.858 160.02 257.292 159.048 254.337 156.955C247.994 152.462 244.238 151.266 236.797 151.883C229.99 152.45 223.407 152.912 217.276 149.475C211.811 146.411 208.335 138.93 209.152 132.794C209.746 128.328 210.809 124.725 213.26 120.921C216.719 115.555 217.186 111.845 215.357 105.584C213.171 98.1042 212.453 91.6269 214.133 83.9315C215.001 79.9564 217.509 76.9319 220.379 74.1628C217.774 75.7254 215.125 77.5421 212.715 79.6173C203.385 87.6454 194.813 111.045 193.966 127.083C193.119 143.123 190.009 155.837 196.632 163.525C203.254 171.213 222.92 171.428 239.846 171.842C256.771 172.257 279.666 166.542 283.901 160.355C284.723 159.155 285.247 156.51 285.489 152.929C280.075 159.124 272.756 163.03 264.318 160.896L264.318 160.896Z" fill="#003780"/>
<path d="M233.369 70.7602C233.369 70.7602 219.008 68.3679 216.308 57.822C213.608 47.2759 218.955 43.1657 223.45 45.3169C227.947 47.468 228.534 46.0873 231.411 43.997C234.288 41.9071 238.893 44.6008 241.316 47.5917C243.738 50.5814 243.878 46.8532 249.054 46.0612C254.23 45.269 256.362 49.9338 254.083 56.4367C251.804 62.938 249.692 69.8422 233.369 70.7603L233.369 70.7602Z" fill="#0051BC"/>
<path d="M248.224 63.6325C244.638 64.8415 246.457 59.9593 245.742 58.3619C244.789 58.4778 244.549 60.0899 244.281 60.8035C243.702 62.3405 242.224 63.4518 240.576 63.5532C238.296 63.6916 237.797 61.2286 236.714 59.7717C236.257 59.1601 236.069 59.1964 235.87 59.9857C235.652 60.8556 235.994 61.8277 235.252 62.5494C233.882 63.88 231.353 62.6692 230.149 61.7674C228.834 60.7841 228.191 59.0562 226.794 58.11C226.571 58.3772 226.496 58.7184 226.45 59.0578C226.236 60.6203 226.545 63.5389 224.001 63.1846C221.844 62.8852 220.165 59.5192 219.352 57.802C218.417 55.8263 217.498 53.4541 217.343 51.2573C217.276 50.3007 217.267 49.3758 217.328 48.4339C217.364 47.8921 217.46 46.7085 217.693 46.2391L217.675 46.2332C215.773 48.1685 214.824 52.0221 216.308 57.8215C218.605 66.7918 229.337 69.8634 232.494 70.5805C233.045 70.7056 233.616 70.749 234.179 70.7095C247.024 69.803 250.69 65.0361 252.838 59.8089L252.817 59.8346C252.817 59.8346 249.508 63.1982 248.224 63.6323L248.224 63.6325Z" fill="#003780"/>
<g filter="url(#filter0_i_2248_5375)">
<path d="M241.634 102.07C248.601 102.248 255.079 104.899 255.465 111.835L243.901 112.473C243.694 109.855 240.974 109.44 239.285 109.535C238.223 109.594 234.786 109.784 234.904 111.908C235.167 116.657 256.207 110.542 256.95 123.978C257.396 132.04 251.251 135.391 243.532 136.379L244.506 144.916L237.445 145.309L237.403 136.657C230.175 136.303 223.3 133.301 222.899 126.051L234.462 125.411L234.475 125.659C234.713 128.844 238.31 129.272 240.123 129.171C241.875 129.074 245.305 128.762 245.175 126.447C244.903 121.51 223.84 127.191 223.119 114.191C222.706 106.69 228.359 103.491 235.512 102.47L234.598 93.8692L241.66 93.4779L241.634 102.07L241.634 102.07Z" fill="#FED622"/>
</g>
<path d="M304.528 155.633C305.37 167.152 296.715 177.175 285.194 178.018C273.674 178.86 263.652 170.204 262.809 158.685C261.966 147.164 270.622 137.142 282.142 136.299C293.663 135.456 303.685 144.112 304.528 155.633Z" fill="#FFDD26"/>
<path d="M299.759 155.914C300.447 165.316 293.382 173.496 283.979 174.184C274.576 174.872 266.397 167.806 265.709 158.404C265.021 149.001 272.086 140.821 281.488 140.133C290.891 139.446 299.071 146.511 299.759 155.914Z" fill="#D46C0B"/>
<path d="M300.693 155.914C301.381 165.316 294.316 173.496 284.913 174.184C275.511 174.872 267.331 167.806 266.644 158.404C265.956 149.001 273.02 140.821 282.422 140.133C291.825 139.446 300.005 146.511 300.693 155.914Z" fill="#FFA70B"/>
<path d="M280.999 148.543C284.339 147.236 287.94 147.2 289.508 150.412L284.151 153.024C283.53 151.823 282.158 152.169 281.376 152.552C280.884 152.791 279.293 153.568 279.772 154.551C280.845 156.751 289.601 149.652 292.636 155.875C294.457 159.608 292.211 162.424 288.748 164.435L290.914 168.288L287.644 169.884L285.898 165.79C282.4 167.064 278.539 167.013 276.902 163.654L282.257 161.043L282.314 161.159C283.062 162.622 284.853 162.107 285.692 161.696C286.504 161.301 288.069 160.468 287.545 159.396C286.431 157.109 277.576 164.008 274.639 157.987C272.946 154.512 274.988 151.867 278.177 149.956L276.026 146.058L279.297 144.463L280.999 148.543L280.999 148.543Z" fill="#D46C0B"/>
<path d="M280.065 148.543C283.405 147.236 287.006 147.201 288.574 150.412L283.217 153.024C282.596 151.823 281.225 152.17 280.443 152.552C279.95 152.791 278.359 153.568 278.838 154.551C279.911 156.751 288.667 149.652 291.702 155.875C293.523 159.608 291.278 162.424 287.815 164.435L289.981 168.288L286.71 169.884L284.964 165.79C281.466 167.064 277.606 167.013 275.968 163.654L281.323 161.043L281.38 161.159C282.128 162.622 283.919 162.107 284.759 161.696C285.571 161.301 287.135 160.468 286.611 159.396C285.497 157.109 276.642 164.008 273.705 157.987C272.012 154.513 274.054 151.867 277.243 149.956L275.092 146.058L278.363 144.463L280.066 148.543L280.065 148.543Z" fill="#FED622"/>
<path d="M222.721 66.4327L221.939 73.2514C221.939 73.2514 225.798 76.4555 235.616 75.7373C245.434 75.0192 250.477 71.1609 250.477 71.1609L249.394 65.1338C249.394 65.1338 236.212 69.52 222.721 66.4327Z" fill="url(#paint1_linear_2248_5375)"/>
</g>
<circle cx="18.2183" cy="18.2183" r="18.2183" transform="matrix(-1 0 0 1 50.498 13.1455)" fill="url(#paint2_linear_2248_5375)"/>
<circle cx="14.9484" cy="14.9484" r="14.9484" transform="matrix(-1 0 0 1 46.7607 15.9482)" fill="#D76B09"/>
<path d="M17.5565 26.6745C14.7465 34.0754 19.0221 42.5633 26.5631 45.4265C34.1041 48.2898 42.4952 44.6113 45.3053 37.2104C48.1153 29.8095 44.2801 21.4888 36.7391 18.6256C29.1982 15.7623 20.3665 19.2736 17.5565 26.6745Z" fill="#FFA70B"/>
<path d="M38.1702 29.9303V31.2166H25.0503V29.9303H38.1702ZM38.1702 32.7087V33.9949H25.0503V32.7087H38.1702ZM37.1219 25.1197V38.291H34.7166L28.9927 30.0011H28.8898V38.291H26.1115V25.1197H28.5489L34.2406 33.4032H34.35V25.1197H37.1219Z" fill="#D46C0B"/>
<path d="M37.2356 29.9303V31.2166H24.1158V29.9303H37.2356ZM37.2356 32.7087V33.9949H24.1158V32.7087H37.2356ZM36.1873 25.1197V38.291H33.782L28.0581 30.0011H27.9552V38.291H25.1769V25.1197H27.6144L33.3061 33.4032H33.4154V25.1197H36.1873Z" fill="#FED622"/>
<defs>
<filter id="filter0_i_2248_5375" x="222.899" y="93.4778" width="34.0735" height="52.7653" filterUnits="userSpaceOnUse" color-interpolation-filters="sRGB">
<feFlood flood-opacity="0" result="BackgroundImageFix"/>
<feBlend mode="normal" in="SourceGraphic" in2="BackgroundImageFix" result="shape"/>
<feColorMatrix in="SourceAlpha" type="matrix" values="0 0 0 0 0 0 0 0 0 0 0 0 0 0 0 0 0 0 127 0" result="hardAlpha"/>
<feOffset dy="0.934272"/>
<feGaussianBlur stdDeviation="0.467136"/>
<feComposite in2="hardAlpha" operator="arithmetic" k2="-1" k3="1"/>
<feColorMatrix type="matrix" values="0 0 0 0 0 0 0 0 0 0 0 0 0 0 0 0 0 0 0.25 0"/>
<feBlend mode="normal" in2="shape" result="effect1_innerShadow_2248_5375"/>
</filter>
<linearGradient id="paint0_linear_2248_5375" x1="165.716" y1="31.5134" x2="46.571" y2="88.3545" gradientUnits="userSpaceOnUse">
<stop offset="0.485988" stop-color="#0051BC"/>
<stop offset="1" stop-color="#003780"/>
</linearGradient>
<linearGradient id="paint1_linear_2248_5375" x1="221.747" y1="70.1359" x2="252.578" y2="70.1359" gradientUnits="userSpaceOnUse">
<stop stop-color="#D46C0B"/>
<stop offset="1" stop-color="#FED622"/>
</linearGradient>
<linearGradient id="paint2_linear_2248_5375" x1="18.2183" y1="0" x2="18.2183" y2="36.4366" gradientUnits="userSpaceOnUse">
<stop offset="0.00519822" stop-color="#FFB310"/>
<stop offset="0.523573" stop-color="#FFD521"/>
<stop offset="1" stop-color="#FEEF32"/>
</linearGradient>
<clipPath id="clip0_2248_5375">
<rect width="36.4366" height="41.8292" fill="white" transform="translate(30.2197 131.077)"/>
</clipPath>
<clipPath id="clip1_2248_5375">
<rect width="36.4366" height="41.8292" fill="white" transform="translate(84.406 131.077)"/>
</clipPath>
<clipPath id="clip2_2248_5375">
<rect width="36.4366" height="41.8292" fill="white" transform="translate(84.406 114.26)"/>
</clipPath>
<clipPath id="clip3_2248_5375">
<rect width="36.4366" height="41.8292" fill="white" transform="translate(138.596 131.077)"/>
</clipPath>
<clipPath id="clip4_2248_5375">
<rect width="36.4366" height="41.8292" fill="white" transform="translate(138.596 92.7717)"/>
</clipPath>
<clipPath id="clip5_2248_5375">
<rect width="103.704" height="103.704" fill="white" transform="translate(65.5715 0.0656738) rotate(9.77087)"/>
</clipPath>
<clipPath id="clip6_2248_5375">
<rect width="128.93" height="179.902" fill="white" transform="translate(165.84 19.0227) rotate(-4.1837)"/>
</clipPath>
</defs>
</svg>
