<svg width="33" height="32" viewBox="0 0 33 32" fill="none" xmlns="http://www.w3.org/2000/svg">
<rect x="0.598633" width="32" height="32" rx="4" fill="#003780" fill-opacity="0.05"/>
<path d="M24.3243 9.53024C24.5919 9.5007 24.8297 9.2939 24.8891 9.02801C24.9783 8.76213 24.8891 8.4667 24.6513 8.28944C22.8381 6.78276 20.5197 5.92603 18.1417 5.92603C12.5536 5.92603 8.00586 10.4461 8.00586 16.0001C8.00586 21.5541 12.5536 26.0742 18.1417 26.0742C20.6386 26.0742 23.0759 25.1583 24.9485 23.4449C25.1566 23.2676 25.2458 22.9722 25.1566 22.7063C25.0674 22.4404 24.8296 22.2632 24.5621 22.2041C21.3222 21.8496 18.8848 19.1021 18.8848 15.8524C18.8848 12.6913 21.1736 10.0325 24.3243 9.53024ZM17.4581 15.8524C17.4581 19.2793 19.6874 22.2336 22.8381 23.2676C21.4411 24.1539 19.836 24.6266 18.1715 24.6266C13.3859 24.6266 9.46234 20.7565 9.46234 15.9706C9.46234 11.1846 13.3562 7.31453 18.1715 7.31453C19.7171 7.31453 21.233 7.72813 22.5706 8.49624C19.5388 9.64841 17.4581 12.5141 17.4581 15.8524Z" fill="#212121"/>
</svg>
