<svg width="33" height="32" viewBox="0 0 33 32" fill="none" xmlns="http://www.w3.org/2000/svg">
<rect x="0.719727" width="32" height="32" rx="4" fill="#222222"/>
<path d="M16.7197 11.1613C14.0511 11.1613 11.881 13.3314 11.881 16C11.881 18.6686 14.0511 20.8387 16.7197 20.8387C19.3883 20.8387 21.5584 18.6686 21.5584 16C21.5584 13.3314 19.3883 11.1613 16.7197 11.1613ZM16.7197 19.4311C14.8429 19.4311 13.2886 17.9062 13.2886 16C13.2886 14.0938 14.8136 12.5689 16.7197 12.5689C18.6259 12.5689 20.1508 14.0938 20.1508 16C20.1508 17.9062 18.5966 19.4311 16.7197 19.4311ZM16.7197 9.63636C17.101 9.63636 17.4235 9.31378 17.4235 8.93255V6.70381C17.4235 6.32258 17.101 6 16.7197 6C16.3385 6 16.0159 6.32258 16.0159 6.70381V8.93255C16.0159 9.31378 16.3385 9.63636 16.7197 9.63636ZM16.7197 22.3636C16.3385 22.3636 16.0159 22.6862 16.0159 23.0674V25.2962C16.0159 25.6774 16.3385 26 16.7197 26C17.101 26 17.4235 25.6774 17.4235 25.2962V23.0674C17.4235 22.6862 17.101 22.3636 16.7197 22.3636ZM21.7051 11.7185C21.881 11.7185 22.057 11.6598 22.2036 11.5132L23.7872 9.92962C24.0511 9.66569 24.0511 9.19648 23.7872 8.93255C23.5232 8.66862 23.054 8.66862 22.7901 8.93255L21.2065 10.5161C20.9426 10.7801 20.9426 11.2493 21.2065 11.5132C21.3532 11.6305 21.5291 11.7185 21.7051 11.7185ZM11.2359 20.4868L9.65228 22.0704C9.38835 22.3343 9.38835 22.8035 9.65228 23.0674C9.79891 23.2141 9.97486 23.2727 10.1508 23.2727C10.3268 23.2727 10.5027 23.2141 10.6493 23.0674L12.2329 21.4839C12.4969 21.2199 12.4969 20.7507 12.2329 20.4868C11.969 20.2229 11.4998 20.2229 11.2359 20.4868ZM26.0159 15.2962H23.7872C23.4059 15.2962 23.0834 15.6188 23.0834 16C23.0834 16.3812 23.4059 16.7038 23.7872 16.7038H26.0159C26.3971 16.7038 26.7197 16.3812 26.7197 16C26.7197 15.6188 26.3971 15.2962 26.0159 15.2962ZM10.3561 16C10.3561 15.6188 10.0335 15.2962 9.65228 15.2962H7.42354C7.04231 15.2962 6.71973 15.6188 6.71973 16C6.71973 16.3812 7.04231 16.7038 7.42354 16.7038H9.65228C10.0335 16.7038 10.3561 16.3812 10.3561 16ZM22.2036 20.4868C21.9397 20.2229 21.4705 20.2229 21.2065 20.4868C20.9426 20.7507 20.9426 21.2199 21.2065 21.4839L22.7901 23.0674C22.9367 23.2141 23.1127 23.2727 23.2886 23.2727C23.4646 23.2727 23.6405 23.2141 23.7872 23.0674C24.0511 22.8035 24.0511 22.3343 23.7872 22.0704L22.2036 20.4868ZM11.2359 11.5132C11.3825 11.6598 11.5584 11.7185 11.7344 11.7185C11.9103 11.7185 12.0863 11.6598 12.2329 11.5132C12.4969 11.2493 12.4969 10.7801 12.2329 10.5161L10.6493 8.93255C10.3854 8.66862 9.91621 8.66862 9.65228 8.93255C9.38835 9.19648 9.38835 9.66569 9.65228 9.92962L11.2359 11.5132Z" fill="#FAFAFA"/>
</svg>
