<svg width="311" height="299" viewBox="0 0 311 299" fill="none" xmlns="http://www.w3.org/2000/svg">
<circle cx="46.715" cy="46.715" r="46.715" transform="matrix(1 0 0 -1 149.802 123.018)" fill="#E99604"/>
<circle cx="46.715" cy="46.715" r="46.715" transform="matrix(1 0 0 -1 149.802 127.521)" fill="#FFC81B"/>
<circle cx="36.0212" cy="36.0212" r="35.4584" transform="matrix(1 0 0 -1 159.932 117.39)" fill="#FFA70B" stroke="#D76B09" stroke-width="1.12566"/>
<path d="M195.645 101.772V60.1479H198.311V101.772H195.645ZM202.718 73.8872C202.588 72.5756 202.029 71.5567 201.043 70.8304C200.056 70.1041 198.718 69.741 197.027 69.741C195.878 69.741 194.908 69.9036 194.116 70.2288C193.325 70.5431 192.718 70.9821 192.295 71.5458C191.883 72.1095 191.677 72.749 191.677 73.4644C191.656 74.0606 191.78 74.5809 192.051 75.0254C192.333 75.4698 192.718 75.8546 193.206 76.1798C193.694 76.4941 194.257 76.7705 194.897 77.009C195.536 77.2367 196.219 77.4318 196.945 77.5944L199.937 78.3098C201.39 78.635 202.723 79.0686 203.937 79.6105C205.151 80.1525 206.203 80.8192 207.091 81.6105C207.98 82.4018 208.669 83.334 209.156 84.4071C209.655 85.4802 209.91 86.7105 209.921 88.098C209.91 90.1359 209.389 91.9028 208.36 93.3986C207.341 94.8837 205.867 96.0381 203.937 96.8619C202.018 97.6749 199.704 98.0814 196.994 98.0814C194.306 98.0814 191.965 97.6695 189.97 96.8457C187.986 96.0218 186.436 94.8024 185.32 93.1873C184.214 91.5613 183.634 89.5505 183.58 87.155H190.393C190.469 88.2715 190.789 89.2037 191.352 89.9516C191.927 90.6887 192.691 91.247 193.645 91.6264C194.609 91.9949 195.699 92.1792 196.913 92.1792C198.105 92.1792 199.14 92.0057 200.019 91.6589C200.907 91.312 201.596 90.8296 202.083 90.2118C202.571 89.5939 202.815 88.8839 202.815 88.0818C202.815 87.3338 202.593 86.7051 202.149 86.1957C201.715 85.6862 201.075 85.2526 200.23 84.8949C199.395 84.5372 198.371 84.212 197.157 83.9193L193.531 83.0088C190.723 82.3259 188.507 81.2582 186.881 79.8057C185.255 78.3531 184.447 76.3966 184.458 73.936C184.447 71.9198 184.984 70.1583 186.068 68.6516C187.163 67.1449 188.664 65.9688 190.572 65.1233C192.479 64.2778 194.647 63.855 197.076 63.855C199.547 63.855 201.704 64.2778 203.547 65.1233C205.4 65.9688 206.842 67.1449 207.872 68.6516C208.902 70.1583 209.433 71.9035 209.465 73.8872H202.718Z" fill="#D46C0B"/>
<path d="M193.285 101.772V60.1479H195.951V101.772H193.285ZM200.357 73.8872C200.227 72.5756 199.669 71.5567 198.683 70.8304C197.696 70.1041 196.358 69.741 194.667 69.741C193.518 69.741 192.547 69.9036 191.756 70.2288C190.965 70.5431 190.358 70.9821 189.935 71.5458C189.523 72.1095 189.317 72.749 189.317 73.4644C189.296 74.0606 189.42 74.5809 189.691 75.0254C189.973 75.4698 190.358 75.8546 190.846 76.1798C191.333 76.4941 191.897 76.7705 192.537 77.009C193.176 77.2367 193.859 77.4318 194.585 77.5944L197.577 78.3098C199.03 78.635 200.363 79.0686 201.577 79.6105C202.791 80.1525 203.842 80.8192 204.731 81.6105C205.62 82.4018 206.308 83.334 206.796 84.4071C207.295 85.4802 207.55 86.7105 207.56 88.098C207.55 90.1359 207.029 91.9028 206 93.3986C204.981 94.8837 203.506 96.0381 201.577 96.8619C199.658 97.6749 197.344 98.0814 194.634 98.0814C191.946 98.0814 189.605 97.6695 187.61 96.8457C185.626 96.0218 184.076 94.8024 182.96 93.1873C181.854 91.5613 181.274 89.5505 181.22 87.155H188.033C188.109 88.2715 188.428 89.2037 188.992 89.9516C189.567 90.6887 190.331 91.247 191.285 91.6264C192.249 91.9949 193.339 92.1792 194.553 92.1792C195.745 92.1792 196.78 92.0057 197.658 91.6589C198.547 91.312 199.236 90.8296 199.723 90.2118C200.211 89.5939 200.455 88.8839 200.455 88.0818C200.455 87.3338 200.233 86.7051 199.788 86.1957C199.355 85.6862 198.715 85.2526 197.87 84.8949C197.035 84.5372 196.011 84.212 194.797 83.9193L191.171 83.0088C188.363 82.3259 186.147 81.2582 184.521 79.8057C182.895 78.3531 182.087 76.3966 182.098 73.936C182.087 71.9198 182.624 70.1583 183.708 68.6516C184.803 67.1449 186.304 65.9688 188.212 65.1233C190.119 64.2778 192.287 63.855 194.715 63.855C197.187 63.855 199.344 64.2778 201.187 65.1233C203.04 65.9688 204.482 67.1449 205.512 68.6516C206.542 70.1583 207.073 71.9035 207.105 73.8872H200.357Z" fill="#FED622"/>
<path d="M224.261 112.399C224.661 112.92 224.564 113.667 224.034 114.054C216.455 119.579 207.386 122.694 198.012 122.994C197.356 123.015 196.82 122.485 196.816 121.829C196.812 121.173 197.341 120.639 197.996 120.617C206.852 120.321 215.418 117.379 222.585 112.169C223.116 111.783 223.861 111.879 224.261 112.399Z" fill="url(#paint0_linear_2248_4922)"/>
<rect x="275.413" y="1.55933" width="34.2577" height="42.5626" fill="#0051BC"/>
<path fill-rule="evenodd" clip-rule="evenodd" d="M142.636 74.3941C150.568 68.6877 150.813 62.2413 153.779 52.1852C157.409 39.8753 158.882 40.7181 169.925 35.9059C178.197 32.301 185.218 30.2701 194.882 28.4508L222.302 23.2625C220.046 27.7137 204.441 30.5962 200.399 31.2721C186.844 33.539 188.015 33.6869 178.88 39.3031C177.14 43.5585 175.541 47.6861 180.983 49.3058L182.719 50.0924C185.806 52.7646 192.239 51.2828 196.346 50.8447C199.005 50.5612 200.889 50.458 203.538 49.9488C205.267 49.6161 208.591 49.5505 209.633 48.1005L211.281 47.6206C213.525 46.8921 222.622 47.0107 225.81 47.339C230.294 47.8015 235.104 48.8884 239.25 49.1083C243.981 50.1435 249.308 50.6109 254.121 49.2958C258.564 48.0808 262.281 45.4605 266.431 44.5888L266.451 51.7026L275.161 51.743L275.329 43.5804L275.35 3.10115L272.63 2.98305L272.624 50.9155L267.109 50.8696C267.101 44.143 266.6 43.8885 266.566 40.4788L266.677 6.73731L265.685 6.92925C260.991 7.85412 226.908 3.46706 219.495 2.72114C193.727 0.128507 197.478 2.50513 180.281 12.7797C172.745 17.2829 156.211 28.0473 149.704 33.2618C144.27 37.616 143.579 42.7827 142.101 51.4611C141.227 56.5903 138.312 69.3587 138.892 73.9073L142.636 74.3941Z" fill="#FAD2C5"/>
<path fill-rule="evenodd" clip-rule="evenodd" d="M142.636 74.3941C150.568 68.6877 150.813 62.2413 153.779 52.1852C157.409 39.8753 158.882 40.7181 169.925 35.9059C178.197 32.301 185.218 30.2701 194.882 28.4508L222.302 23.2625C220.046 27.7137 204.441 30.5962 200.399 31.2721C186.844 33.539 188.015 33.6869 178.88 39.3031C177.14 43.5585 175.541 47.6861 180.983 49.3058L182.719 50.0924C185.806 52.7646 192.239 51.2828 196.346 50.8447C199.005 50.5612 200.889 50.458 203.538 49.9488C205.267 49.6161 208.591 49.5505 209.633 48.1005L211.281 47.6206C213.525 46.8921 222.622 47.0107 225.81 47.339C230.294 47.8015 235.104 48.8884 239.25 49.1083C243.981 50.1435 249.308 50.6109 254.121 49.2958C258.564 48.0808 262.281 45.4605 266.431 44.5888L266.451 51.7026L275.161 51.743L275.329 43.5804L275.35 3.10115L272.63 2.98305L272.624 50.9155L267.109 50.8696C267.101 44.143 266.6 43.8885 266.566 40.4788L266.677 6.73731L265.685 6.92925C260.991 7.85412 226.908 3.46706 219.495 2.72114C193.727 0.128507 197.478 2.50513 180.281 12.7797C172.745 17.2829 156.211 28.0473 149.704 33.2618C144.27 37.616 143.579 42.7827 142.101 51.4611C141.227 56.5903 138.312 69.3587 138.892 73.9073L142.636 74.3941Z" fill="#DF812A" fill-opacity="0.65"/>
<path fill-rule="evenodd" clip-rule="evenodd" d="M34.3171 114.078L20.7612 112.028C21.6609 114.04 26.6648 119.871 28.335 121.813C32.1637 126.264 49.9489 148.462 52.5725 150.632C53.9449 147.966 67.1849 103.839 67.1973 102.17C65.5252 103.52 54.1935 110.587 52.0241 111.441C48.183 104.983 52.0949 87.4118 54.6394 80.9775C57.8831 72.7734 64.5461 64.0319 69.4514 60.1067C86.0875 46.792 100.931 42.5867 123.719 43.5179C122.819 42.5582 123.554 42.9875 122.09 42.379L115.247 41.3612C111.949 40.9693 108.713 40.8423 105.291 40.8216C65.6175 40.5763 32.6654 70.2161 34.3174 114.078H34.3171Z" fill="url(#paint1_linear_2248_4922)"/>
<path fill-rule="evenodd" clip-rule="evenodd" d="M186.758 246.959C193.27 250.551 216.315 248.687 223.78 246.819C244.044 241.748 260.667 228.914 269.493 210.157C275.34 197.734 275.841 190.839 276.195 175.613L292.891 179.174C291.374 178.007 286.699 171.496 284.918 169.473L268.74 149.96C266.113 146.844 263.558 143.291 260.75 140.527L243.139 187.603L258.673 178.329C263.832 195.348 254.052 218.79 240.895 229.9C230.609 238.587 217.825 244.409 203.157 245.957C200.236 246.265 187.971 246.11 186.758 246.96V246.959Z" fill="url(#paint2_linear_2248_4922)"/>
<path fill-rule="evenodd" clip-rule="evenodd" d="M281.819 30.217C289.015 27.4897 293.108 37.3787 286.595 40.6096C279.046 44.3553 275.232 32.7142 281.819 30.217Z" fill="#8809B8"/>
<rect x="275.414" y="44.1218" width="34.2577" height="15.5717" fill="#003780"/>
<path fill-rule="evenodd" clip-rule="evenodd" d="M142.636 74.394L145.902 73.798C146.027 73.7014 146.218 73.4049 146.282 73.5164C146.357 73.6447 146.651 73.2517 147.021 72.9821C147.715 72.4767 147.739 72.4853 148.345 72.011C157.32 64.9807 157.941 50.4325 161.593 47.3174C161.947 47.0151 166.342 45.0149 167.093 44.662C170.994 42.8277 175.347 41.1492 178.88 39.3033C188.015 33.6871 186.843 33.5392 200.398 31.2724C204.441 30.5964 220.045 27.7142 222.302 23.2627L194.881 28.451C185.217 30.2703 178.197 32.3009 169.924 35.9061C158.881 40.718 157.408 39.8756 153.778 52.1854C150.812 62.2415 150.567 68.6879 142.636 74.3943L142.636 74.394Z" fill="#F1B09D"/>
<path fill-rule="evenodd" clip-rule="evenodd" d="M142.636 74.394L145.902 73.798C146.027 73.7014 146.218 73.4049 146.282 73.5164C146.357 73.6447 146.651 73.2517 147.021 72.9821C147.715 72.4767 147.739 72.4853 148.345 72.011C157.32 64.9807 157.941 50.4325 161.593 47.3174C161.947 47.0151 166.342 45.0149 167.093 44.662C170.994 42.8277 175.347 41.1492 178.88 39.3033C188.015 33.6871 186.843 33.5392 200.398 31.2724C204.441 30.5964 220.045 27.7142 222.302 23.2627L194.881 28.451C185.217 30.2703 178.197 32.3009 169.924 35.9061C158.881 40.718 157.408 39.8756 153.778 52.1854C150.812 62.2415 150.567 68.6879 142.636 74.3943L142.636 74.394Z" fill="#D6701C" fill-opacity="0.65"/>
<path fill-rule="evenodd" clip-rule="evenodd" d="M266.327 6.50879L266.197 40.7863C266.237 44.2501 266.216 44.5083 266.226 51.3418L273.33 51.3887L273.338 2.69491L266.071 2.59741L266.327 6.50879Z" fill="#FDFEFB"/>
<path fill-rule="evenodd" clip-rule="evenodd" d="M286.656 40.7291C293.243 38.2319 289.429 26.5907 281.88 30.3364C275.368 33.5671 279.461 43.4564 286.656 40.7291Z" fill="#FED622"/>
<circle cx="282.68" cy="33.7407" r="1.03811" fill="#003780"/>
<circle cx="282.68" cy="36.855" r="1.03811" fill="#003780"/>
<circle cx="285.794" cy="33.7407" r="1.03811" fill="#003780"/>
<circle cx="285.794" cy="36.855" r="1.03811" fill="#003780"/>
<circle cx="46.715" cy="46.715" r="46.715" transform="matrix(-1 0 0 1 164.334 155.55)" fill="#E99604"/>
<circle cx="46.715" cy="46.715" r="46.715" transform="matrix(-1 0 0 1 164.334 151.047)" fill="#FFC81B"/>
<circle cx="36.0212" cy="36.0212" r="35.4584" transform="matrix(-1 0 0 1 154.204 161.178)" fill="#FFA70B" stroke="#D76B09" stroke-width="1.12566"/>
<path d="M101.915 202.096V198.844H135.085V202.096H101.915ZM101.915 195.072V191.82H135.085V195.072H101.915ZM104.565 214.258V180.958H110.647L125.118 201.917H125.378V180.958H132.402V214.258H126.239L111.85 193.316H111.573V214.258H104.565Z" fill="#D46C0B"/>
<path d="M104.276 202.096V198.844H137.445V202.096H104.276ZM104.276 195.072V191.82H137.445V195.072H104.276ZM106.926 214.258V180.958H113.007L127.478 201.917H127.738V180.958H134.762V214.258H128.6L114.21 193.316H113.934V214.258H106.926Z" fill="#FED622"/>
<path d="M89.6076 166.376C89.2038 165.859 89.2951 165.11 89.8225 164.72C97.3606 159.139 106.405 155.956 115.777 155.586C116.433 155.56 116.973 156.087 116.982 156.743C116.991 157.399 116.466 157.937 115.811 157.964C106.957 158.325 98.4139 161.331 91.2853 166.594C90.7573 166.984 90.0114 166.893 89.6076 166.376Z" fill="url(#paint3_linear_2248_4922)"/>
<path fill-rule="evenodd" clip-rule="evenodd" d="M171.501 204.174C163.569 209.881 163.324 216.327 160.358 226.383C156.728 238.693 155.255 237.85 144.212 242.662C135.94 246.267 128.919 248.298 119.255 250.118L91.8346 255.306C94.0912 250.855 109.696 247.972 113.738 247.296C127.293 245.029 126.122 244.881 135.257 239.265C136.997 235.01 138.596 230.882 133.154 229.263L131.418 228.476C128.331 225.804 121.898 227.286 117.791 227.724C115.132 228.007 113.248 228.11 110.599 228.62C108.87 228.952 105.546 229.018 104.504 230.468L102.856 230.948C100.611 231.676 91.5149 231.558 88.327 231.229C83.8426 230.767 79.0332 229.68 74.8873 229.46C70.156 228.425 64.8288 227.957 60.0161 229.273C55.5732 230.488 51.856 233.108 47.7062 233.98L47.6855 226.866L38.9755 226.825L38.8082 234.988L38.7875 275.467L41.5065 275.585L41.5131 227.653L47.0281 227.699C47.0364 234.425 47.5372 234.68 47.571 238.09L47.4601 271.831L48.4516 271.639C53.1462 270.714 87.229 275.101 94.6424 275.847C120.41 278.44 116.659 276.063 133.856 265.789C141.392 261.285 157.926 250.521 164.433 245.307C169.867 240.952 170.558 235.786 172.036 227.107C172.91 221.978 175.825 209.21 175.245 204.661L171.501 204.174Z" fill="#DF812A"/>
<rect x="38.7236" y="276.659" width="34.2577" height="15.5717" transform="rotate(180 38.7236 276.659)" fill="#003780"/>
<path fill-rule="evenodd" clip-rule="evenodd" d="M47.8095 271.709L47.9401 237.432C47.9004 233.968 47.9208 233.71 47.911 226.876L40.8072 226.829L40.7994 275.523L48.0662 275.621L47.8095 271.709Z" fill="#FDFEFB"/>
<rect width="34.2577" height="42.5626" transform="matrix(-1 0 0 1 38.7229 218.525)" fill="#0051BC"/>
<path fill-rule="evenodd" clip-rule="evenodd" d="M32.3184 247.183C38.9051 249.68 35.0914 261.321 27.5422 257.575C21.0297 254.345 25.123 244.455 32.3184 247.183Z" fill="#FED622"/>
<circle cx="1.03811" cy="1.03811" r="1.03811" transform="matrix(1 0 0 -1 27.3042 255.209)" fill="#003780"/>
<circle cx="1.03811" cy="1.03811" r="1.03811" transform="matrix(1 0 0 -1 27.3042 252.094)" fill="#003780"/>
<circle cx="1.03811" cy="1.03811" r="1.03811" transform="matrix(1 0 0 -1 30.4187 255.209)" fill="#003780"/>
<circle cx="1.03811" cy="1.03811" r="1.03811" transform="matrix(1 0 0 -1 30.4187 252.094)" fill="#003780"/>
<path fill-rule="evenodd" clip-rule="evenodd" d="M171.602 204.51C171.477 204.607 167.751 206.018 167.687 205.907C167.613 205.779 167.318 206.172 166.948 206.441C166.254 206.947 166.23 206.938 165.624 207.412C156.649 214.443 156.028 228.991 152.377 232.106C152.023 232.408 147.627 234.408 146.877 234.761C142.975 236.596 138.622 238.274 135.089 240.12C125.954 245.736 125.984 245.325 112.429 247.592C108.387 248.268 92.1863 250.187 91.6675 256.161L119.088 250.972C128.752 249.153 135.773 247.122 144.045 243.517C155.088 238.705 156.561 239.548 160.191 227.238C163.157 217.182 163.671 210.216 171.602 204.51Z" fill="#D6701C"/>
<path d="M105.388 148.304L102.756 158.724L113.096 161.654L102.676 159.022L99.746 169.362L102.378 158.942L92.0384 156.012L102.458 158.644L105.388 148.304Z" fill="#FAFAFA"/>
<path d="M214.764 109.23L213.265 118.995L222.472 122.58L212.706 121.08L209.122 130.287L210.621 120.521L201.414 116.937L211.18 118.437L214.764 109.23Z" fill="#FAFAFA"/>
<path d="M102.567 147.933L103.184 158.216L113.468 158.833L103.184 159.45L102.567 169.733L101.951 159.45L91.6672 158.833L101.951 158.216L102.567 147.933Z" fill="#FAFAFA"/>
<defs>
<linearGradient id="paint0_linear_2248_4922" x1="196.517" y1="123.018" x2="225.065" y2="111.08" gradientUnits="userSpaceOnUse">
<stop stop-color="#FEED31"/>
<stop offset="0.357993" stop-color="white"/>
<stop offset="0.500496" stop-color="white"/>
<stop offset="0.613471" stop-color="white"/>
<stop offset="1" stop-color="#FEED31"/>
</linearGradient>
<linearGradient id="paint1_linear_2248_4922" x1="72.2403" y1="40.8201" x2="39.7625" y2="135.476" gradientUnits="userSpaceOnUse">
<stop stop-color="#003780"/>
<stop offset="1" stop-color="#0051BC"/>
</linearGradient>
<linearGradient id="paint2_linear_2248_4922" x1="226.622" y1="248.63" x2="276.971" y2="164.543" gradientUnits="userSpaceOnUse">
<stop stop-color="#003780"/>
<stop offset="1" stop-color="#0051BC"/>
</linearGradient>
<linearGradient id="paint3_linear_2248_4922" x1="117.619" y1="155.55" x2="86.9949" y2="165.581" gradientUnits="userSpaceOnUse">
<stop stop-color="#FEED31"/>
<stop offset="0.41054" stop-color="white"/>
<stop offset="0.534826" stop-color="white"/>
<stop offset="0.675559" stop-color="white"/>
<stop offset="1" stop-color="#FEED31"/>
</linearGradient>
</defs>
</svg>
