<svg width="16" height="16" viewBox="0 0 16 16" fill="none" xmlns="http://www.w3.org/2000/svg">
<circle cx="7.71929" cy="4.85198" r="3.18535" stroke="#666666" stroke-linecap="round" stroke-linejoin="round"/>
<path fill-rule="evenodd" clip-rule="evenodd" d="M2.66664 12.4676C2.66578 12.2437 2.71586 12.0225 2.81309 11.8207C3.1182 11.2105 3.97861 10.8871 4.69257 10.7407C5.20748 10.6308 5.7295 10.5574 6.25474 10.521C7.22719 10.4356 8.20525 10.4356 9.1777 10.521C9.70289 10.5578 10.2249 10.6312 10.7399 10.7407C11.4538 10.8871 12.3142 11.18 12.6193 11.8207C12.8149 12.2319 12.8149 12.7093 12.6193 13.1205C12.3142 13.7612 11.4538 14.0542 10.7399 14.1945C10.2256 14.3089 9.70336 14.3844 9.1777 14.4203C8.3862 14.4874 7.59102 14.4996 6.79783 14.4569C6.61477 14.4569 6.4378 14.4569 6.25474 14.4203C5.73105 14.3849 5.21084 14.3094 4.69867 14.1945C3.97861 14.0542 3.1243 13.7612 2.81309 13.1205C2.71636 12.9165 2.66633 12.6934 2.66664 12.4676Z" stroke="#666666" stroke-linecap="round" stroke-linejoin="round"/>
</svg>
